<svg xmlns="http://www.w3.org/2000/svg" viewBox="0 0 587 201.8" fill="#ec6900"><path d="M257.6 99.1c-1.1-.4-3.3-.6-5.6-.6-6.8 0-12.2 4.9-14.1 8.4v36.4h-15.5V85.4h14.9v5.9c3.5-4.3 9.8-7 16.8-7 2.3 0 3.6.2 5.3.5l-1.8 14.3zm81.2 43.6c-2 .7-6.7 1.2-9.7 1.2-9.3 0-16.1-3.1-20.1-8.4-3-3.9-4.3-9.1-4.3-17.3V68.7h15.5v16.1h19.1v13.1h-19.1V120c0 3.6.6 5.7 1.9 7.3 1.5 1.8 4.1 2.9 7.9 2.9 2.3 0 5.3-.4 6.3-.6l2.5 13.1zm60.6-9.2c-5.6 6.7-14.8 10.4-23.8 10.4-17.3 0-30.3-11.9-30.3-30.1 0-16.1 11-30.2 28.2-30.2 16 0 27.3 13.5 27.3 29.6 0 1.6-.1 3.1-.4 4.4h-40.1c.8 8.1 7.4 13.7 15.6 13.7 6.6 0 11.8-3.7 14.6-6.7l8.9 8.9zm-14.5-27.2c-.5-5.1-5.1-10.1-11.5-10.1s-11.7 4.9-12.4 10.1h23.9zm79.2 24.6c-6.8 9.1-15.4 13-26.3 13-17.9 0-31-13.4-31-30.1 0-16.8 13.5-30.2 31.2-30.2 10 0 19 4.7 24.4 11.6l-11 9.7c-3.1-4.1-7.8-6.9-13.4-6.9-9 0-15.6 7-15.6 15.9 0 9.1 6.6 15.8 16 15.8 6.3 0 11.3-3.8 13.9-7.6l11.8 8.8zm23.2 11.8h-15.5V57.9h15.5v31c4.3-3.3 9.8-5.4 15.8-5.4 8 0 15.3 3.6 20.1 9.3 3.8 4.5 6 10.4 6 20.3v29.5h-15.5V112c0-5.7-1.3-8.7-3.5-10.9-2-2-5.1-3.2-8.7-3.2-6.6 0-11.9 4.2-14.1 7.2v37.6zM93 143.9H82.3L57.9 86h15.6l14.1 33.8L102.2 86H113l14.5 33.8L141.6 86h15.6l-24.4 57.9h-10.7l-14.6-33.7L93 143.9zm63.4-.6l17.5-83.6h14.3l-17.5 83.6h-14.3zm27.2 0L201 59.7h14.3l-17.5 83.6h-14.2zm97.1-57.5c5.6 0 10 4.2 10 9.8s-4.4 9.7-10 9.7-9.9-4.1-9.9-9.7c-.1-5.6 4.3-9.8 9.9-9.8zm0 38c5.6 0 10 4.2 10 9.8s-4.4 9.7-10 9.7-9.9-4.1-9.9-9.7c-.1-5.6 4.3-9.8 9.9-9.8z"/></svg>